<svg xmlns="http://www.w3.org/2000/svg" viewBox="0 0 500 500">
  <g transform="matrix(.32 0 0 .32 0 0)">
    <path
      d="M172.544 563.26c-.751 2.138-2.373 4.299-3.601 6.454 1.885-5.248 3.64-10.557 5.61-15.771.998-2.605 1.985-5.209 2.978-7.808.993-2.598 1.975-5.191 3.069-7.734.886-2.127 2.014-3.659 3.108-5.612-.988 2.537-1.97 5.068-2.951 7.594-.993 2.52-1.851 5.085-2.782 7.616l-2.772 7.605c-.925 2.537-1.756 5.107-2.659 7.655zM886.056 14.21l-.028-1.167a769.342 769.342 0 01149.59 34.775 769.119 769.119 0 01139.678 63.848l-.393 1.095a768.342 768.342 0 00-139.47-63.798A766.186 766.186 0 00886.056 14.21zm157.792 74.557c4.92 1.78 9.85 3.474 14.714 5.315 4.853 1.852 9.683 3.721 14.501 5.562 4.774 1.965 9.526 3.918 14.272 5.86 4.746 1.925 9.38 4.069 14.052 6.095a805.588 805.588 0 0154.134 26.53c17.47 9.447 34.343 19.476 50.707 29.95 4.056 2.66 8.18 5.213 12.168 7.941l11.96 8.133c7.836 5.567 15.673 11.079 23.247 16.86 60.96 45.82 113.278 98.741 157.219 157.5 43.885 58.79 79.445 123.537 105.441 194.02 25.945 70.454 42.264 146.78 46.14 228.015-.117-19.284-.707-38.025-2.053-56.254-1.397-18.224-3.158-35.949-5.705-53.162-4.796-34.467-11.876-66.936-20.375-97.833-8.46-30.914-18.742-60.16-30.214-88.257-2.805-7.06-5.918-13.947-8.908-20.856-3.013-6.893-6.272-13.65-9.402-20.447-3.332-6.69-6.536-13.437-9.985-20.037-3.473-6.589-6.833-13.234-10.496-19.7l-5.992-10.754-6.198-10.607-3.136-5.299-3.231-5.23-6.474-10.457-6.71-10.299-3.365-5.146-3.473-5.074-6.973-10.13-7.191-9.974c-19.214-26.576-40.329-51.748-62.712-75.703-44.996-47.712-95.899-89.913-151.43-124.952-13.817-8.868-28.054-17.056-42.404-25.032-7.26-3.833-14.429-7.846-21.805-11.45l-11.012-5.533-11.136-5.26-5.57-2.626-5.632-2.503-11.265-5.001-11.377-4.726c-3.792-1.577-7.59-3.143-11.432-4.597l-11.5-4.44c-3.843-1.453-7.73-2.789-11.59-4.18-7.713-2.846-15.545-5.344-23.348-7.931-31.302-10.046-63.272-17.988-95.58-24.067-32.34-5.932-65.039-9.827-97.833-11.77-63.475-3.473-127.241.13-189.796 11.754-15.65 2.789-31.173 6.308-46.645 10.03-15.41 3.978-30.786 8.132-45.95 13.032-15.23 4.725-30.22 10.175-45.147 15.821-14.838 5.877-29.614 11.966-44.087 18.752-95.523 44.12-181.992 107.75-252.552 185.955C132.047 334.694 77.14 427.245 42.768 527.16 25.54 577.09 13.446 628.814 6.663 681.196-.14 733.6-1.65 786.538 2.047 839.223c3.702 52.69 12.706 105.095 26.915 156.08 14.199 50.984 33.659 100.51 57.854 147.582 36.727 71.453 84.376 137.21 140.771 194.408 56.4 57.192 121.603 105.74 192.724 143.429 71.098 37.716 148.165 64.488 227.532 78.727 19.836 3.558 39.818 6.303 59.856 8.419 20.044 2.065 40.166 3.232 60.294 3.833 20.122.505 40.261.174 60.395-.746 20.128-1.033 40.222-2.885 60.254-5.36 60.3-7.774 120.504-22.714 176.96-44.615 28.24-10.888 55.621-23.314 81.695-37.166 26.063-13.869 50.887-29.04 74.19-45.159 23.303-16.119 45.097-33.187 65.185-50.799 20.072-17.634 38.46-35.785 55.082-54.01 33.322-36.425 59.33-73.26 78.745-106.683 12.768-22.024 26.023-46.898 37.989-72.812 11.96-25.896 22.675-52.786 30.943-78.48 8.331-25.666 14.378-50.042 18.098-70.623 1.722-10.333 3.147-19.633 3.775-27.765.348-4.058.662-7.78.718-11.18.073-3.402.027-6.45-.14-9.115-.405-8.318-.259-18.342-2.155-16.568-.477.443-1.094 1.622-1.896 3.738-.774 2.121-1.812 5.169-3.147 9.35-.645 2.105-1.38 4.485-2.193 7.162-.393 1.347-.808 2.772-1.251 4.27-.477 1.5-.965 3.07-1.481 4.727-1.021 3.322-2.138 6.97-3.36 10.978-1.235 4.013-2.716 8.334-4.225 13.066-.673 2.099-1.335 4.108-1.952 6.033a800.468 800.468 0 00-1.952 5.478c-1.262 3.474-2.412 6.623-3.445 9.474-2.142 5.658-4.022 10.013-5.447 13.313-2.838 6.59-4.375 8.745-4.667 7.802-.157-.477 0-1.73.348-3.632.33-1.908.892-4.456 1.61-7.498.701-3.042 1.621-6.567 2.58-10.45.937-3.896 1.958-8.144 3.035-12.595.786-3.138 1.464-6.247 2.11-9.323.645-3.075 1.278-6.112 1.907-9.143 1.279-6.05 2.255-12.117 3.433-18.28 1.133-6.168 2.098-12.527 3.287-19.167 1.077-6.678 2.216-13.677 3.422-21.187 4.87-31.346 6.766-57.36 7.282-78.15.33-10.394.083-19.503-.13-27.344a315.345 315.345 0 00-1.497-19.829c-2.9-21.58-6.676-23.864-11.988-10.826-7.798 18.948-14.95 58.41-29.726 112.89-3.865 13.583-7.916 28.153-12.97 43.464-4.954 15.323-10.496 31.487-17.07 48.263-13.032 33.568-29.446 69.865-50.848 107.295-30.349 53.09-67.322 100.212-109.255 141.453-42.068 41.135-89.09 76.438-140.491 105.668-51.487 29.095-107.371 52.146-167.592 67.979-60.21 15.805-124.823 24.375-193.554 23.517-40.02-.533-82.7-6.517-124.98-17.461-42.32-10.888-84.163-26.699-123.623-45.411-17.266-8.166-37.293-18.46-56.136-29.191-18.877-10.68-36.56-21.788-49.978-30.246-38.68-24.24-74.211-53.505-106.041-87.186-15.926-16.826-30.96-34.741-45.041-53.678-14.103-18.926-27.185-38.923-39.212-59.925-26.091-45.344-46.455-93.747-60.8-143.75a671.747 671.747 0 01-16.907-76.066c-4.056-25.655-6.586-51.546-7.652-77.504-1.094-25.958-.572-52.028 1.43-77.913 2.02-25.886 5.386-51.653 10.43-77.1a685.405 685.405 0 0119.392-75.32 693.648 693.648 0 0128.173-72.633c29.406-64.157 68.467-123.106 115.185-174.174 23.252-25.644 48.53-49.183 75.132-70.775 13.328-10.77 27.084-20.929 41.114-30.622 6.984-4.883 14.153-9.474 21.283-14.115 3.613-2.234 7.231-4.468 10.844-6.696 3.596-2.262 7.31-4.316 10.95-6.488 14.68-8.498 29.586-16.54 44.794-23.865a721.16 721.16 0 0146.258-20.3c15.635-6.146 31.477-11.646 47.442-16.642 4.005-1.206 8.005-2.413 12.005-3.62 4.028-1.111 8.05-2.222 12.072-3.334 4.011-1.161 8.078-2.087 12.117-3.115 4.045-1.015 8.078-2.054 12.15-2.912 64.912-14.874 131.679-19.903 197.044-15.637 5.599.432 10.62.645 15.275.83 4.645.276 8.937.422 13.105.534 4.168.073 8.173.331 12.296.488 2.065.101 4.14.219 6.272.32 2.132.13 4.297.342 6.552.556 5.442.533 10.698.892 15.876 1.526 2.603.287 5.195.562 7.803.848 1.307.14 2.62.303 3.938.443 1.313.185 2.637.36 3.966.545 10.653 1.47 21.98 3.322 35.347 6.606 41.732 10.164 80.293 23.337 115.881 38.653a779.064 779.064 0 0151.313 24.348c16.453 8.514 32.194 17.522 47.346 26.85 30.355 18.6 58.241 38.642 84.253 59.712 25.968 21.126 50.079 43.306 72.54 66.728-26.534-33.367-54.936-63.074-84.657-89.341-29.703-26.29-60.563-49.346-92.364-69.265-63.537-39.967-130.36-68.052-199.517-85.585-4.438-2.094-8.864-4.35-13.368-6.331 17.03 3.519 34.185 7.599 51.183 12.482 16.986 4.9 33.877 10.389 50.454 16.478a812.038 812.038 0 0148.592 19.936c15.752 7.184 31.039 14.772 45.765 22.551 14.938 8.077 29.339 16.31 43.537 25.06 14.125 8.846 28.167 18.034 42.275 28.147 14.092 10.142 28.358 21.059 43.021 33.238a720.847 720.847 0 0145.058 41.095c-13.985-15.098-27.258-28.343-40.082-40.073-12.796-11.759-24.907-22.254-36.75-31.717-11.735-9.58-23.218-18.095-34.443-26.295-11.349-8.037-22.467-15.749-33.956-23.09-12.482-8.2-25.8-16.484-39.38-24.768-6.873-4.002-13.717-8.172-20.74-11.989-3.506-1.925-6.956-3.945-10.496-5.77-3.528-1.84-7.051-3.664-10.557-5.488 7.528 2.458 13.457 3.71 20.273 5.96 3.422 1.1 7.125 2.346 11.394 4.047 4.23 1.768 9.06 3.951 14.804 6.785 25.003 12.724 51.16 28.321 76.753 46.04 25.496 17.843 50.555 37.644 73.51 58.5-19.522-19.824-38.309-36.274-56.726-50.827-18.433-14.537-36.508-27.182-55.087-39.103a751.603 751.603 0 00-65.45-37.554 730.932 730.932 0 00-69.005-30.633l-8.005-6.146"
      fill="#9ddde9" />
  </g>
  <g transform="matrix(.32 0 0 .32 0 0)">
    <path
      d="M267.888 1164.516c7.315 11.163 15.876 23.842 25.132 36.044l-6.95-7.538c-2.3-2.599-4.606-5.209-6.873-7.774-1.133-1.29-2.255-2.57-3.354-3.833-1.066-1.296-2.11-2.582-3.13-3.833a233.502 233.502 0 01-5.678-7.319c-15.724-21.766-28.654-43.503-40.906-66.2 11.326 18.454 23.32 36.52 41.759 60.453"
      fill="#9ddde9" />
  </g>
  <g transform="matrix(.32 0 0 .32 0 0)">
    <path
      d="M918.293 890.882l312.296 249.857c42.889-53.564 76.397-114.96 98.053-181.707L948.186 835.475a175.368 175.368 0 01-29.893 55.407zm-25 455.008c16.529-3.264 32.788-7.284 48.769-11.934a574.175 574.175 0 01-48.797 11.835l.027.1zm-.621-428.973a175.16 175.16 0 01-57.34 31.395l123.214 380.581c69.374-22.465 132.982-57.7 188.02-102.99zm65.883 411.994l-.009-.018c-.917.297-1.834.575-2.76.863.926-.288 1.852-.548 2.77-.845zM415.91 336.616L669.82 645.63a175.074 175.074 0 0157.332-31.377L603.929 233.645c-69.374 22.456-132.982 57.682-188.02 102.971zm253.265-119.95c-21.692 4.28-42.915 9.838-63.654 16.484a570.981 570.981 0 0163.672-16.412l-.019-.072zm-65.254 16.97l.009.009c.53-.171 1.061-.324 1.592-.495-.531.171-1.07.315-1.601.486zM233.816 603.515l380.473 123.539c6.6-20.352 16.817-39.066 29.902-55.407L331.877 421.781c-42.897 53.573-76.406 114.978-98.061 181.734zm1106.93 312.52c-.153.648-.296 1.296-.458 1.943.162-.647.332-1.286.485-1.933l-.027-.01zM221.73 646.503c.243-1.016.467-2.041.72-3.048-.253 1.016-.513 2.023-.765 3.04l.045.008zm110.607-225.305a598.388 598.388 0 0118.12-21.476 581.638 581.638 0 00-18.12 21.476"
      fill="#a9edce" />
    <path
      d="M1230.59 1140.739L918.292 890.882c-7.626 9.533-16.197 18.274-25.621 26.035l253.894 308.987.072.08c14.101-11.61 27.609-23.93 40.532-36.835.09-.081.171-.17.261-.252 2.14-2.131 4.254-4.29 6.358-6.448.98-1.016 1.952-2.032 2.932-3.049a628.073 628.073 0 0012.815-13.822 391.67 391.67 0 003.624-4.083 597.197 597.197 0 005.873-6.772c.953-1.124 1.915-2.23 2.86-3.354a546.024 546.024 0 007.086-8.616c.54-.665 1.107-1.313 1.637-1.987l-.027-.027zM415.845 336.544l-.01-.009c-.152.126-.305.261-.458.387-13.328 10.999-26.107 22.627-38.382 34.768-.909.908-1.826 1.807-2.734 2.716a824.435 824.435 0 00-4.82 4.883 598.193 598.193 0 00-6.61 6.898c-.594.629-1.206 1.25-1.8 1.888a600.72 600.72 0 00-9.118 10l-1.457 1.646a598.388 598.388 0 00-18.121 21.476c-.153.198-.315.387-.477.575l.018.01L644.19 671.646c7.626-9.524 16.206-18.265 25.63-26.017L415.91 336.616l-.063-.072"
      fill="#c5fdff" />
  </g>
  <g transform="matrix(.32 0 0 .32 0 0)">
    <path
      d="M705.884 781.256c0-41.54 33.814-75.336 75.38-75.336 41.54 0 75.318 33.796 75.318 75.336 0 41.566-33.778 75.371-75.317 75.371-41.567 0-75.381-33.805-75.381-75.371zm86.883 103.51a102.784 102.784 0 0020.558-4.434A103.767 103.767 0 00847.31 861.7a104.167 104.167 0 0015.208-15.441 104.105 104.105 0 0017.752-32.843 106.922 106.922 0 002.194-7.779 104.38 104.38 0 002.06-11.331c.54-4.281.845-8.625.845-13.058 0-57.395-46.701-104.105-104.104-104.105-3.886 0-7.717.225-11.494.647-2.967.324-5.9.774-8.795 1.35a101.72 101.72 0 00-11.817 3.084 104.194 104.194 0 00-33.976 18.616 105.492 105.492 0 00-15.217 15.432c-7.76 9.695-13.831 20.783-17.761 32.834a103.238 103.238 0 00-2.194 7.806 102.151 102.151 0 00-2.06 11.304c-.54 4.272-.845 8.616-.845 13.032 0 57.439 46.72 104.167 104.159 104.167 3.885 0 7.725-.234 11.502-.647zm-11.502-679.09c-138.747 0-266.018 49.103-365.42 130.868l.064.072c71.891-59.157 158.37-101.227 253.265-119.95l.018.072c15.945-3.157 32.115-5.684 48.491-7.492l44.193 397.551c6.367-.692 12.833-1.088 19.389-1.088 96.91 0 175.492 78.627 175.483 175.538 0 7.455-.512 14.784-1.412 21.997l396.805 50.074a578.1 578.1 0 01-11.394 62.718l.027.01c-.153.647-.324 1.285-.486 1.933-.459 1.924-.944 3.83-1.43 5.746-.432 1.7-.881 3.4-1.322 5.1a636.62 636.62 0 01-1.915 7.113c-.171.602-.351 1.214-.522 1.817-2.014 7.15-4.128 14.263-6.412 21.286l-.045-.009c-21.656 66.747-55.164 128.143-98.052 181.707l.027.027c-.531.674-1.098 1.322-1.637 1.987a590.466 590.466 0 01-7.087 8.616c-.944 1.124-1.906 2.23-2.86 3.354a597.197 597.197 0 01-5.872 6.772 391.67 391.67 0 01-3.624 4.083 628.073 628.073 0 01-12.815 13.822c-.98 1.016-1.952 2.033-2.932 3.049a614.345 614.345 0 01-6.358 6.448c-.09.081-.171.17-.261.252-12.923 12.905-26.431 25.226-40.532 36.836l-.072-.081c-71.891 59.166-158.379 101.245-253.274 119.986l-.027-.099c-15.936 3.139-32.097 5.657-48.482 7.465l-44.13-397.497a177.07 177.07 0 01-19.39 1.088c-96.964 0-175.546-78.627-175.546-175.6 0-7.447.513-14.758 1.412-21.962L210.334 709.22a578.103 578.103 0 0111.395-62.718l-.045-.009c.252-1.016.512-2.023.764-3.04a555.314 555.314 0 012.932-11.421c.396-1.493.791-2.986 1.205-4.47a621.189 621.189 0 011.997-6.996 517.27 517.27 0 013.012-10.028c.495-1.6.98-3.201 1.484-4.793.243-.746.459-1.502.702-2.24l.036.01c21.655-66.756 55.164-128.161 98.06-181.734l-.017-.009c.162-.188.324-.377.477-.575a581.638 581.638 0 0118.12-21.476l1.458-1.646a563.86 563.86 0 019.119-10c.593-.638 1.205-1.259 1.798-1.888a598.193 598.193 0 016.61-6.898c1.601-1.637 3.21-3.265 4.82-4.884.909-.908 1.826-1.807 2.735-2.715a601.1 601.1 0 0118.723-17.744c-116.677 105.337-190.043 257.744-190.043 427.3 0 317.872 257.717 575.598 575.589 575.598 317.862 0 575.534-257.726 575.534-575.597 0-317.872-257.672-575.571-575.534-575.571"
      fill="#a9edce" />
  </g>
  <g transform="matrix(.32 0 0 .32 0 0)">
    <path
      d="M927.303 781.234a145.976 145.976 0 01-2.807 28.496 145.97 145.97 0 01-8.312 27.402 145.974 145.974 0 01-13.498 25.253 145.981 145.981 0 01-28.787 31.762 145.981 145.981 0 01-23.809 15.908 145.974 145.974 0 01-26.455 10.958 145.975 145.975 0 01-28.084 5.586 145.976 145.976 0 01-28.635 0 145.976 145.976 0 01-28.084-5.586 145.981 145.981 0 01-26.455-10.958 145.978 145.978 0 01-23.809-15.908 145.974 145.974 0 01-20.248-20.248 145.98 145.98 0 01-15.908-23.809 145.975 145.975 0 01-10.958-26.455 145.982 145.982 0 01-5.586-28.084 145.98 145.98 0 010-28.635 145.982 145.982 0 015.586-28.084 145.983 145.983 0 0110.958-26.455 145.982 145.982 0 0125.535-34.43 145.981 145.981 0 0122.135-18.166 145.982 145.982 0 0125.253-13.498 145.982 145.982 0 0127.402-8.312 145.982 145.982 0 0128.497-2.807 145.981 145.981 0 0128.496 2.807 145.982 145.982 0 0140.36 14.44 145.978 145.978 0 0123.809 15.91 145.978 145.978 0 0120.248 20.247 145.983 145.983 0 0122.037 36.767 145.977 145.977 0 018.312 27.402 145.989 145.989 0 012.807 28.497z"
      fill="#9ddde9" />
    <path fill="#fff"
      d="M881.291 797.009c-2.921 0-5.112-2.483-5.112-5.405v-19.28c0-2.922 2.19-5.405 5.112-5.405 2.921 0 5.112 2.483 5.112 5.404v19.428c0 2.92-2.19 5.258-5.112 5.258zM735.222 858.504c-3.068 0-5.113-2.921-5.113-6.427V711.851c0-3.506 2.045-6.427 5.113-6.427 3.067 0 5.112 2.92 5.112 6.427v140.372c0 3.506-2.19 6.281-5.112 6.281zM713.311 824.178c-3.067 0-5.112-2.483-5.112-5.405V745.3c0-3.067 2.045-5.404 5.112-5.404 3.068 0 5.113 2.483 5.113 5.404v73.473c0 2.922-2.191 5.405-5.113 5.405zM756.402 824.178c-3.068 0-5.843-2.483-5.843-5.405V745.3c0-3.067 2.775-5.404 5.843-5.404 3.067 0 5.843 2.483 5.843 5.404v73.473c0 2.922-2.922 5.405-5.843 5.405zM797.301 824.178c-3.067 0-5.843-2.483-5.843-5.405V745.3c0-3.067 2.776-5.404 5.843-5.404 3.068 0 5.843 2.483 5.843 5.404v73.473c0 2.922-2.921 5.405-5.843 5.405zM840.392 824.178c-3.068 0-5.113-2.483-5.113-5.405V745.3c0-3.067 2.045-5.404 5.113-5.404 3.067 0 5.112 2.483 5.112 5.404v73.473c0 2.922-2.191 5.405-5.112 5.405zM819.212 805.043c-3.068 0-5.843-2.483-5.843-5.405V764.29c0-3.067 2.775-5.404 5.843-5.404 3.067 0 5.842 2.483 5.842 5.404v35.35c0 3.067-2.921 5.404-5.842 5.404zM862.302 804.897c-3.067 0-5.112-2.483-5.112-5.405v-35.495c0-3.067 2.045-5.404 5.112-5.404s5.112 2.483 5.112 5.404v35.35c0 3.067-2.19 5.55-5.112 5.55zM777.582 805.043c-3.068 0-5.113-2.483-5.113-5.405V764.29c0-3.067 2.045-5.404 5.113-5.404 3.067 0 5.112 2.483 5.112 5.404v35.35c0 3.067-2.19 5.404-5.112 5.404z" />
  </g>
</svg>