<svg xmlns="http://www.w3.org/2000/svg" fill-rule="evenodd" clip-rule="evenodd" image-rendering="optimizeQuality" shape-rendering="geometricPrecision" text-rendering="geometricPrecision" viewBox="0 0 512 406.453"><path fill-rule="nonzero" d="M97.761 63.347H77.388c-21.303 0-40.662 8.705-54.671 22.714C8.705 100.073 0 119.443 0 140.735v188.33c0 21.296 8.709 40.655 22.721 54.667s33.374 22.721 54.667 22.721h357.224c21.293 0 40.662-8.705 54.675-22.717C503.295 369.727 512 350.368 512 329.065v-188.33c0-21.307-8.698-40.666-22.71-54.678s-33.367-22.71-54.678-22.71H295.959V14.426C295.959 6.459 289.5 0 281.533 0a14.376 14.376 0 00-9.985 4.013L171.751 82.84c-6.223 4.915-7.281 13.947-2.366 20.17a14.348 14.348 0 002.61 2.559l100.636 79.489c6.223 4.914 15.255 3.856 20.17-2.366a14.302 14.302 0 003.089-8.902h.069v-52.737h138.653c5.386 0 10.304 2.224 13.881 5.801s5.801 8.498 5.801 13.881v188.33c0 5.379-2.228 10.297-5.804 13.874-3.581 3.58-8.502 5.808-13.878 5.808H77.388c-5.368 0-10.29-2.232-13.87-5.812s-5.812-8.498-5.812-13.87v-188.33c0-5.376 2.228-10.297 5.808-13.877 3.577-3.577 8.495-5.805 13.874-5.805h20.373V63.347z"/></svg>